# xmcd
#
# Track frame offsets: 
#        150
#        16163
#        37232
#        50822
#        70792
#        89466
#        115593
#        152662
#        175995
#        206760
#        224408
#
# Disc length: 3504 seconds
#
# Revision: 0
# Processed by: cddbd v1.5.2PL0 Copyright (c) Steve Scherf et al.
# Submitted via: ExactAudioCopyFreeDBPlugin 1.0
#
DISCID=9c0dae0b
DTITLE=Stevie Ray Vaughan - The Penulimate Show
DYEAR=2018
DGENRE=Blues
TTITLE0=Tightrope
TTITLE1=Things That I Used To Do
TTITLE2=Let Me Love You Baby
TTITLE3=Leave My Little Girl Alone
TTITLE4=Look At Little Sister
TTITLE5=Wall Of Denial
TTITLE6=Riviera Paradise
TTITLE7=Superstition
TTITLE8=Couldn't Stand The Weather - Goin' Down
TTITLE9=Crossfire
TTITLE10=Voodoo Chile
EXTD=
EXTT0=
EXTT1=
EXTT2=
EXTT3=
EXTT4=
EXTT5=
EXTT6=
EXTT7=
EXTT8=
EXTT9=
EXTT10=
PLAYORDER=
